<?xml version="1.0" encoding="utf-8"?>
<!-- Generator: Adobe Illustrator 27.2.0, SVG Export Plug-In . SVG Version: 6.00 Build 0)  -->
<svg version="1.1" id="Layer_1" xmlns="http://www.w3.org/2000/svg" xmlns:xlink="http://www.w3.org/1999/xlink" x="0px" y="0px"
	 viewBox="0 0 800 800" style="enable-background:new 0 0 800 800;" xml:space="preserve">
<style type="text/css">
	.st0{fill:#191919;}
</style>
<path class="st0" d="M400,27.1l-66.3,254.3L93.5,174.7l157.4,210.4L17.8,506.4l262.7,8.1l-50.6,257.9L400,572l170.1,200.3
	l-50.6-257.9l262.7-8.1L549.1,385.1l157.4-210.4L466.3,281.4L400,27.1z M400,146l35.9,157.2L400,320.5l-35.9-17.3L400,146z
	 M186.5,248.8l145.3,70l-8.9,38.8L287,374.9L186.5,248.8z M613.5,248.8L513,374.9l-35.9-17.3l-8.9-38.8L613.5,248.8z M357.7,331.3
	l9.9,4.8l-12.3,5.9L357.7,331.3z M442.3,331.3l2.4,10.7l-12.3-5.9L442.3,331.3z M400,351.7l52.7,25.4l13,57.1l-36.5,45.8h-58.5
	l-36.5-45.8l13-57.1L400,351.7z M314.9,392.7l-3,13.3l-6.8-8.6L314.9,392.7z M485.1,392.7l9.9,4.8l-6.8,8.6L485.1,392.7z M279,409.9
	l24.8,31.1l-8.9,38.8H133.7L279,409.9z M521,409.9l145.3,70H505.1l-8.9-38.8L521,409.9z M326.2,469.2l8.5,10.7h-11L326.2,469.2z
	 M473.8,469.2l2.4,10.7h-11L473.8,469.2z M317.4,508h39.8l24.8,31.1L281.5,665.2L317.4,508z M393.2,508h13.7l-6.8,8.6L393.2,508z
	 M442.8,508h39.8l35.9,157.2L418,539.2L442.8,508z"/>
</svg>
